<?xml version="1.0" encoding="utf-8" ?><svg xmlns="http://www.w3.org/2000/svg" xmlns:xlink="http://www.w3.org/1999/xlink" width="1024" height="1024" viewBox="0 0 1024 1024"><path fill="white" d="M0 0L1024 0L1024 1024L0 1024L0 0Z"/><path fill="#071236" d="M480.58 361.236L481.087 361.228C494.108 361.026 508.08 361.328 520.648 361.071C550.575 360.459 577.299 358.218 592.274 389.782C599.377 404.753 598.072 414.612 598.201 430.72C583.577 431.111 567.479 430.793 552.736 430.81L552.819 408.428C526.057 408.195 499.294 408.165 472.531 408.34L472.497 524.609L552.021 524.81L552.046 494.998L503.419 494.889L503.466 459.25L503.531 453.166L596.952 453.395C596.701 469.159 597.145 485.167 597.003 500.946C596.918 510.512 597.703 523.333 595.616 532.458C593.831 540.559 589.991 548.064 584.466 554.251C576.928 562.568 563.241 569.805 551.837 569.821C530.466 569.85 509.08 569.79 487.706 569.865C480.163 569.892 471.141 570.275 463.863 568.622C456.176 566.859 449.1 563.074 443.367 557.658C433.068 548.044 427.506 534.74 427.416 520.665C427.228 491.234 427.059 461.794 426.975 432.363C426.947 422.843 426.386 411.489 428.367 402.297C430.382 392.739 435.036 383.937 441.801 376.89C453.105 365.053 464.768 361.586 480.58 361.236Z"/><path fill="#071236" d="M283.827 361.184C285.296 361.124 286.767 361.087 288.238 361.072L332.649 361.042C341.243 361.03 350.447 361.134 358.903 361.005C375.032 360.758 384.567 363.985 396.24 375.195C412.261 390.581 411.031 408.507 411.023 428.84L411.001 460.454L410.946 569.962L366.491 569.944C365.439 547.303 366.233 518.107 366.234 494.873C345.151 494.208 320.268 494.748 299.063 494.884L299.071 453.245L344.25 453.172L366.017 453.215L366.033 407.509L283.96 407.483L283.947 569.749L238.294 569.692L238.182 456.499L238.197 426.254C238.213 418.699 237.965 409.571 239.29 402.245C240.756 393.77 244.448 385.836 249.987 379.256C258.431 368.992 270.6 362.493 283.827 361.184Z"/><path fill="#071236" d="M740.833 361.089L786.5 361.184L786.477 569.708C771.413 569.921 755.914 569.738 740.815 569.742C740.91 562.118 740.853 554.384 740.863 546.75L740.693 494.797C719.506 494.136 694.853 494.741 673.401 494.714C673.022 481.125 673.168 466.906 673.177 453.302C695.725 453.11 718.273 453.101 740.82 453.275L740.833 361.089Z"/><path fill="#071236" d="M613.817 361.23C628.683 361.134 643.55 361.128 658.416 361.211L658.409 503.621L658.41 549.201C658.394 553.819 658.68 565.347 658.177 569.152L657.375 569.759C642.909 570.063 627.701 569.87 613.173 569.916L613.329 414.083C613.33 408.513 612.843 363.926 613.817 361.23Z"/><path fill="#E4B039" d="M238.275 588.568L786.338 588.742L786.26 594.881C767.471 593.841 741.293 594.704 721.978 594.716L603.325 594.642L238.425 594.941C238.307 592.913 238.316 590.621 238.275 588.568Z"/><path fill="#373963" d="M652.091 629.062C661.706 627.054 671.124 633.231 673.115 642.848C675.105 652.466 668.912 661.874 659.291 663.847C649.694 665.816 640.314 659.642 638.329 650.048C636.343 640.454 642.501 631.064 652.091 629.062Z"/><path fill="white" d="M653.219 633.39C660.41 631.959 667.405 636.612 668.865 643.797C670.325 650.983 665.7 657.996 658.521 659.485C651.3 660.982 644.238 656.325 642.77 649.099C641.302 641.872 645.987 634.829 653.219 633.39Z"/><path fill="#373963" d="M455.667 629.178C465.212 627.037 474.68 633.059 476.79 642.611C478.899 652.163 472.848 661.612 463.288 663.691C453.773 665.76 444.377 659.741 442.277 650.233C440.177 640.724 446.165 631.309 455.667 629.178Z"/><path fill="white" d="M457.141 633.352C464.301 632.004 471.206 636.687 472.603 643.837C474 650.988 469.365 657.925 462.224 659.371C455.014 660.831 447.994 656.14 446.584 648.921C445.173 641.701 449.912 634.713 457.141 633.352Z"/><path fill="#373963" d="M258.794 616.242C260.782 616.374 262.039 616.427 264.023 616.424C269.841 630.514 278.635 649.127 284.935 663.524C284.911 663.597 284.886 663.67 284.862 663.743C284.401 664.081 280.879 664.083 280.751 663.937C278.71 661.608 276.041 655.013 274.645 652.27L274.185 651.379C271.207 651.386 268.228 651.373 265.25 651.34C259.625 651.267 253.999 651.303 248.376 651.447C246.885 654.704 245.168 658.099 243.798 661.301C242.564 664.186 241.972 663.594 238.989 663.593C238.829 663.593 238.128 663.33 238.201 663.144C244.336 647.425 252.056 631.821 258.794 616.242Z"/><path fill="white" d="M261.206 621.867C263.44 624.887 270.707 642.833 272.704 647.391L262.201 647.441C258.146 647.455 254.091 647.416 250.037 647.323C253.811 638.763 257.058 630.314 261.206 621.867Z"/><path fill="#373963" d="M766.305 629.177C770.366 629.094 775.058 629.403 778.183 632.32C780.977 634.928 781.87 637.874 782.062 641.607C782.163 643.565 782.264 663.455 781.865 663.759C781.27 664.214 778.915 664.069 778.302 663.834C777.611 663.568 778.226 660.141 777.835 659.273C777.781 659.154 777.749 659.165 777.647 659.136C776.863 659.399 775.782 661.169 774.902 661.717C771.63 663.7 766.798 664.28 763.045 663.786C758.552 663.194 756.488 661.801 754.112 658.135C749.82 641.434 767.471 644.098 776.815 643.61C778.583 643.009 776.669 638.124 776.333 637.608C771.606 630.352 762.319 633.291 756.63 636.621L756.657 636.663C756.04 635.842 755.546 634.941 754.935 634.114L754.361 633.321C759.361 630.045 760.409 629.816 766.305 629.177Z"/><path fill="white" d="M765.17 647.712C769.305 647.485 773.351 647.534 777.489 647.584C777.502 649.885 777.495 652.186 777.468 654.487L777.215 654.782C774.732 657.728 774.041 658.295 770.523 659.879C766.242 660.206 759.309 660.692 757.979 654.763C756.923 650.06 761.233 648.387 765.17 647.712Z"/><path fill="#373963" d="M574.839 614.084C575.82 614.088 578.275 613.728 579.058 614.482C579.625 615.028 579.311 645.931 579.356 649.259C586.195 642.534 592.953 635.318 600.296 629.184C601.124 629.085 606.763 628.146 604.453 630.429C600.172 634.66 595.695 638.856 591.451 643.111C594.22 646.894 597.61 650.925 600.584 654.653C601.385 655.812 607.029 662.712 606.871 663.334C601.958 667.382 590.913 649.944 587.87 646.49C584.363 649.429 582.412 651.407 579.498 655.067C579.495 656.775 579.767 661.581 579.278 663.154C579.173 663.411 578.537 663.678 578.315 663.632C578.022 663.571 575.155 663.806 575.144 663.339C574.773 647.231 574.536 630.303 574.839 614.084Z"/><path fill="#373963" d="M319.408 628.991C320.32 628.989 322.943 628.643 323.664 629.204C324.353 629.741 323.687 649.975 324.441 652.757C325.091 655.155 326.844 657.215 329.028 658.376C332.032 659.972 336.03 659.922 339.19 658.81C348.857 655.409 346.399 641.633 346.287 633.516C346.275 632.628 345.979 630.289 346.537 629.5C346.789 629.143 347.352 629.105 347.746 629.109C348.085 629.112 348.424 629.138 348.763 629.128C349.402 629.109 349.976 629.007 350.503 629.458C351.541 630.348 350.931 636.707 350.934 638.25C350.938 641.928 351.239 658.547 350.718 663.469C350.68 663.827 347.277 664.114 346.732 663.6C346.06 662.967 346.417 660.254 346.373 659.157L345.926 659.078C341.095 662.856 340.458 663.529 333.75 663.854C328.171 664.661 320.415 659.344 319.748 653.582C318.929 646.498 319.224 636.371 319.408 628.991Z"/><path fill="#373963" d="M521.469 629.094C525.957 628.851 532.023 629.23 536.017 631.807C536.912 632.384 535.029 635.104 534.649 635.331C533.734 635.88 530.908 633.593 529.73 633.616C526.284 631.938 516.359 632.562 515.501 637.483C513.596 648.416 537.37 640.591 537.855 652.746C538.18 660.902 532.521 663.085 525.839 663.653C522.223 663.637 509.62 663.048 510.974 658.511C512.425 653.654 515.369 659.017 519.316 659.287C523.512 659.575 527.09 660.37 530.861 658.324C537.638 652.611 531.173 649.465 524.996 648.564C519.938 647.826 511.925 647.066 510.695 640.905C509.25 633.671 515.468 630.306 521.469 629.094Z"/><path fill="#373963" d="M392.56 621.131L394.523 621.094C398.577 621.035 396.883 625.449 396.919 629.434C398.396 629.449 405.053 629.255 406.453 629.705C407.393 630.007 406.977 632.615 406.814 632.738C405.807 633.501 398.158 633.121 396.738 633.137C396.696 640.393 396.344 648.849 397.128 655.973C397.809 662.155 407.768 658.443 408.955 658.722C409.17 659.704 410.117 661.949 408.795 662.552C405.434 664.713 394.746 664.129 393.389 659.299C391.623 653.012 392.426 639.935 392.411 633.193C390.907 633.17 387.613 633.553 386.354 632.807C385.776 632.464 385.807 629.933 386.361 629.62C387.516 628.966 391.013 629.252 392.415 629.237C392.439 626.539 392.38 623.817 392.56 621.131Z"/><path fill="#373963" d="M711.331 614.134C712.137 614.135 714.574 613.79 715.264 614.4C715.846 614.915 715.648 659.591 715.527 664.037C714.68 664.017 711.946 664.343 711.304 663.633C710.759 663.03 711.169 618.959 711.331 614.134Z"/><path fill="#373963" d="M531.555 613.963C539.414 615.189 533.056 615.511 529.696 620.632C528.472 622.499 525.57 624.621 523.665 625.864C521.44 623.732 519.869 621.91 517.824 619.636C517.167 618.953 511.503 614.444 514.715 614.543C518.971 614.675 521.78 618.551 524.577 621.32C527.011 618.681 528.855 616.359 531.555 613.963Z"/></svg>